<svg id="Layer_1" data-name="Layer 1" xmlns="http://www.w3.org/2000/svg" viewBox="0 0 793.17 206.48" style="width: 100%;max-width: 640px;"><title>brand-symbols</title><path d="M559.77,604.62A102.13,102.13,0,1,1,661.9,502.48,102.25,102.25,0,0,1,559.77,604.62Zm0-184.27a82.13,82.13,0,1,0,82.13,82.13A82.23,82.23,0,0,0,559.77,420.35Z" transform="translate(-421.24 -398.94)" fill="#fff"/><path d="M691.58,446.28c-4.78-13.13-20-19.78-45.39-19.78a221.85,221.85,0,0,0-38.11,3.8,23.61,23.61,0,0,1,2.5,2.3c0.42,0.06.85,0.11,1.28,0.19,7.81,1.36,12.48,7.32,12.84,13.84a17.09,17.09,0,0,1,2.62,3,168.38,168.38,0,0,1,18.88-1.17c18.73,0,24.33,4.25,24.72,5.31s-1.91,10.39-23.26,26c-20.16,14.72-49,29.28-81.22,41-36.9,13.43-72.76,21.13-98.38,21.13-18.73,0-24.33-4.25-24.72-5.31s1.91-10.39,23.26-26c2-1.43,4-2.85,6.12-4.27a12.09,12.09,0,0,1-1.76-8.95c1.2-6.08,2.31-12.16,4.49-18,0.12-.31.25-0.61,0.38-0.91a250.09,250.09,0,0,0-22.21,14.34c-26,19-36.43,36.25-31,51.27,4.78,13.13,20,19.78,45.39,19.78,28.09,0,66.69-8.18,105.9-22.45,34.1-12.41,64.88-28,86.67-43.91C686.64,478.56,697.05,461.31,691.58,446.28Z" transform="translate(-421.24 -398.94)" fill="#fff"/><rect x="409.24" y="6.06" width="21" height="198.09" fill="#fff"/><rect x="342.72" y="94.56" width="153.93" height="21" fill="#fff"/><path d="M1102,605.43l-6.47-5.5c-2.69-2.28-66.14-56.39-97.11-105.5-11.46-18.17-11.83-40.76-1-60.41,11.75-21.3,34.15-35.07,57.06-35.07,12.58,0,30.32,4,47.5,21.66,17.18-17.65,34.92-21.67,47.51-21.67,22.9,0,45.29,13.75,57,35,10.85,19.66,10.5,42.25-.95,60.45-30.73,48.85-94.42,103.22-97.11,105.51Zm-47.51-186.48c-15.74,0-31.27,9.71-39.55,24.73-7.38,13.38-7.24,28,.39,40.08C1039.07,521.42,1085,563.93,1102,579c17-15.12,63.09-57.79,86.66-95.25,7.62-12.12,7.76-26.74.37-40.13-8.29-15-23.8-24.7-39.53-24.7-14.38,0-28.05,8-39.56,23.05l-8,10.43L1094,442C1082.53,426.92,1068.85,418.95,1054.47,418.95Z" transform="translate(-421.24 -398.94)" fill="#fff"/></svg>