<svg id="Layer_1" data-name="Layer 1" xmlns="http://www.w3.org/2000/svg" viewBox="0 0 154.1 154.1" style="width: 100%;max-width: 90px;"><title>grin</title><path d="M560.73,45A77.05,77.05,0,1,0,637.78,122,77.05,77.05,0,0,0,560.73,45Zm23.21,36c3.45-1.38,9.6-3.16,13.39-4.65,1.09-.4,5.75-2.07,6.78-2.07a4.24,4.24,0,0,1,3,7.53c-0.17.12-.46,0.34-0.57,0.4l-7,2.64c2.87,0.63,5.75,1.21,8.62,2,3.68,0.92,6,.92,6,5.46a4.21,4.21,0,0,1-3.56,3.62,16.55,16.55,0,0,1-5.23-.8l-12.3-2.82c-2.7-.58-5.46-1.32-8.22-1.9-2.59-.52-5.46-1.21-5.46-4.83C579.4,82.45,581.7,81.82,583.94,81Zm-78.49,8.5a4.27,4.27,0,0,1,2.13-3.27c1.15-.69,10.75-2.64,12.53-3.1l-0.8-.34c-3.45-1.32-8.33-1.84-8.33-6.09A4.3,4.3,0,0,1,515,72.57c2.7,0,17.07,5.46,20.86,6.72a9.71,9.71,0,0,1,3.1,1.49,4.41,4.41,0,0,1-.52,6.61c-1.32,1.09-10,2.64-12,3.1l-12.3,2.82a23.27,23.27,0,0,1-4.25.86c-2.82,0-4.31-1.72-4.54-3.62V89.46ZM613,126a58.92,58.92,0,0,1-9.14,20.57,71.07,71.07,0,0,1-16,15.92,43.65,43.65,0,0,1-14.08,6.78,61.19,61.19,0,0,1-15.46,2.47,56.36,56.36,0,0,1-15.69-2.3,50.68,50.68,0,0,1-15.51-7.07,63.9,63.9,0,0,1-15.86-15.05,54.51,54.51,0,0,1-9.08-20.11c-1.55-6.78-1.38-13.33-1.26-19.82,6-1.21,12-2.47,19.71-3.45s17.3-1.55,25.8-1.84a227.37,227.37,0,0,1,23.5.12c7.47,0.46,15,1.32,22.41,2.41s14.82,2.53,22.18,3.91C614.51,114,614.51,119.46,613,126Z" transform="translate(-483.67 -44.99)" fill="#1d1d1b"/></svg>