<svg id="Layer_1" data-name="Layer 1" xmlns="http://www.w3.org/2000/svg" viewBox="0 0 1409.79 438.71" style="width: 100%;max-width: 550px;"><title>logo</title><path d="M559.77,604.62A102.13,102.13,0,1,1,661.9,502.48,102.25,102.25,0,0,1,559.77,604.62Zm0-184.27a82.13,82.13,0,1,0,82.13,82.13A82.23,82.23,0,0,0,559.77,420.35Z" transform="translate(-136.1 -398.94)" fill="#FFFFFF" stroke="#FFFFFF" stroke-miterlimit="10"/><path d="M691.58,446.28c-4.78-13.13-20-19.78-45.39-19.78a221.85,221.85,0,0,0-38.11,3.8,23.61,23.61,0,0,1,2.5,2.3c0.42,0.06.85,0.11,1.28,0.19,7.81,1.36,12.48,7.32,12.84,13.84a17.09,17.09,0,0,1,2.62,3,168.38,168.38,0,0,1,18.88-1.17c18.73,0,24.33,4.25,24.72,5.31s-1.91,10.39-23.26,26c-20.16,14.72-49,29.28-81.22,41-36.9,13.43-72.76,21.13-98.38,21.13-18.73,0-24.33-4.25-24.72-5.31s1.91-10.39,23.26-26c2-1.43,4-2.85,6.12-4.27a12.09,12.09,0,0,1-1.76-8.95c1.2-6.08,2.31-12.16,4.49-18,0.12-.31.25-0.61,0.38-0.91a250.09,250.09,0,0,0-22.21,14.34c-26,19-36.43,36.25-31,51.27,4.78,13.13,20,19.78,45.39,19.78,28.09,0,66.69-8.18,105.9-22.45,34.1-12.41,64.88-28,86.67-43.91C686.64,478.56,697.05,461.31,691.58,446.28Z" transform="translate(-136.1 -398.94)" fill="#FFFFFF" stroke="#FFFFFF" stroke-miterlimit="10"/><rect x="694.39" y="6.06" width="21" height="198.09" fill="#FFFFFF" stroke="#FFFFFF" stroke-miterlimit="10"/><rect x="627.87" y="94.56" width="153.93" height="21" fill="#FFFFFF" stroke="#FFFFFF" stroke-miterlimit="10"/><path d="M1102,605.43l-6.47-5.5c-2.69-2.28-66.14-56.39-97.11-105.5-11.46-18.17-11.83-40.76-1-60.41,11.75-21.3,34.15-35.07,57.06-35.07,12.58,0,30.32,4,47.5,21.66,17.18-17.65,34.92-21.67,47.51-21.67,22.9,0,45.29,13.75,57,35,10.85,19.66,10.5,42.25-.95,60.45-30.73,48.85-94.42,103.22-97.11,105.51Zm-47.51-186.48c-15.74,0-31.27,9.71-39.55,24.73-7.38,13.38-7.24,28,.39,40.08C1039.07,521.42,1085,563.93,1102,579c17-15.12,63.09-57.79,86.66-95.25,7.62-12.12,7.76-26.74.37-40.13-8.29-15-23.8-24.7-39.53-24.7-14.38,0-28.05,8-39.56,23.05l-8,10.43L1094,442C1082.53,426.92,1068.85,418.95,1054.47,418.95Z" transform="translate(-136.1 -398.94)" fill="#FFFFFF"/><path d="M136.1,799.42q0-16.48,10.9-27.22a35.61,35.61,0,0,1,25.86-10.73q16.54,0,27.36,10.79T211,799.53q0,16.37-10.71,27.19t-27,10.82q-16.26,0-26.76-10.76T136.1,799.42Zm37.5-23.11q-9.35-.17-15.07,6.46t-5.72,17.11q0,9.91,5.83,16.43a18.92,18.92,0,0,0,14.73,6.51q9.35,0,15.09-6.43t5.75-17q0-10.37-5.64-16.65T173.59,776.31Z" transform="translate(-136.1 -398.94)" fill="#FFFFFF"/><path d="M317.06,762.26h15.69v74.37H317.14l-34-48.14v48.14h-16V762.26H283l34.11,47.8v-47.8Z" transform="translate(-136.1 -398.94)" fill="#FFFFFF"/><path d="M391.32,762.26h41.86V777H407.35v15h25.83v14.5H407.35V821.9h25.83v14.73H391.32V762.26Z" transform="translate(-136.1 -398.94)" fill="#FFFFFF"/><path d="M490.61,762.26h15.92V820.6h21.92v16H490.61V762.26Z" transform="translate(-136.1 -398.94)" fill="#FFFFFF"/><path d="M609.1,762.26h12.42l30.3,74.37H635.68l-6-14.61H601.19l-5.83,14.61h-16Zm6.21,24.36-8.74,21.92h17.67Z" transform="translate(-136.1 -398.94)" fill="#FFFFFF"/><path d="M695.14,762.26h14.27l12,50.69,12.49-50.69h10.2l12.31,50.92,12.21-50.92h14.27l-18,74.37H749.8L738.9,791,728,836.63H713Z" transform="translate(-136.1 -398.94)" fill="#FFFFFF"/><path d="M936.37,762.26h12.42l30.3,74.37H962.95L957,822H928.46l-5.83,14.61h-16Zm6.21,24.36-8.74,21.92H951.5Z" transform="translate(-136.1 -398.94)" fill="#FFFFFF"/><path d="M1094.74,778.4l-10.65,10a23,23,0,0,0-8.27-8.64,20.39,20.39,0,0,0-25.46,3.77,21.71,21.71,0,0,0-6.43,15.63,22.48,22.48,0,0,0,6.43,16.23,20.76,20.76,0,0,0,15.49,6.66,19.52,19.52,0,0,0,9.49-2.49q4.56-2.49,7.34-9.35h-17.62v-14.5h34.32v9.63q0,7.42-5.1,15.94a30.85,30.85,0,0,1-13.42,12.46,39,39,0,0,1-16.82,3.94,34.45,34.45,0,0,1-26-11.16q-10.59-11.16-10.59-27.58a36.52,36.52,0,0,1,10.9-26.62,35.56,35.56,0,0,1,26.25-11Q1084.21,761.24,1094.74,778.4Z" transform="translate(-136.1 -398.94)" fill="#FFFFFF"/><path d="M1155,762.26h41.86V777H1171v15h25.83v14.5H1171V821.9h25.83v14.73H1155V762.26Z" transform="translate(-136.1 -398.94)" fill="#FFFFFF"/><path d="M1303.07,762.26h15.69v74.37h-15.61l-34-48.14v48.14h-16V762.26H1269l34.11,47.8v-47.8Z" transform="translate(-136.1 -398.94)" fill="#FFFFFF"/><path d="M1432.77,766.23v18.13q-12.06-7.25-21.13-7.25t-14.5,6.23q-5.44,6.23-5.44,16.77,0,10,5.72,15.94t15.29,6q8.38,0,20.05-6.74v18q-13.08,4.36-21.81,4.36a33.85,33.85,0,0,1-25.49-11q-10.48-11-10.48-26.88,0-16.14,10.68-27.33a34.55,34.55,0,0,1,26-11.19Q1421.5,761.24,1432.77,766.23Z" transform="translate(-136.1 -398.94)" fill="#FFFFFF"/><path d="M1482.67,762.26h17.75l13.72,23.06,13.92-23.06h17.82l-23.68,39.59v34.78h-15.86V801.85Z" transform="translate(-136.1 -398.94)" fill="#FFFFFF"/></svg>