<svg id="Layer_1" data-name="Layer 1" xmlns="http://www.w3.org/2000/svg" viewBox="0 0 154.1 154.1" style="width: 100%;max-width: 90px;"><title>thumb-up</title><path d="M158.46,45A77.05,77.05,0,1,0,235.51,122,77.05,77.05,0,0,0,158.46,45ZM137.14,157.44a1.94,1.94,0,0,1-2,2H121.51a2,2,0,0,1-2-2V118.08a2,2,0,0,1,2-2h13.68a1.94,1.94,0,0,1,2,2v39.36ZM192,120.38a5.37,5.37,0,1,1,0,10.75h-3v0.46h1a5.38,5.38,0,0,1,5.34,5.4c0,2.93-2.41,6.15-5.34,6.15h-1a5.69,5.69,0,0,1,3.56,5.17,5.58,5.58,0,0,1-5.57,5.57H145.18a3.46,3.46,0,0,1-3.45-3.45V118.71c0-3.33,6-11.15,8.45-14.25a33.52,33.52,0,0,1,4.48-5.11c1.55-1.32,3.22-2.3,4.25-3a3.31,3.31,0,0,0,1.38-2.93c0.06-1.55-.12-4.08.11-6.15a7.56,7.56,0,0,1,2-4.6,5.88,5.88,0,0,1,4.14-1.32,6.13,6.13,0,0,1,4.19,1.9,11.35,11.35,0,0,1,2.64,6,24.43,24.43,0,0,1-.06,9.14,24,24,0,0,1-2.82,6.84q-1.46,2.59-1.9,3.45c-0.17.34-.17,0.52,0,0.58H192a5.37,5.37,0,1,1,0,10.75h-3v0.46h3Z" transform="translate(-81.4 -44.99)" fill="#1d1d1b"/></svg>