<svg id="Layer_1" data-name="Layer 1" xmlns="http://www.w3.org/2000/svg" viewBox="0 0 154.11 154.1" style="width: 100%;max-width: 90px;"><title>w00t</title><path d="M759.42,45A77.05,77.05,0,1,0,836.47,122,77.05,77.05,0,0,0,759.42,45Zm-23.47,59.32c-0.73,8.79-6.37,15.91-12.61,15.91s-10.7-7.12-10-15.91S719.74,88.41,726,88.41,736.67,95.53,735.95,104.31ZM732.36,70c-2.18-2.41-4.71-3.85-7.93-2.24a21.48,21.48,0,0,0-1.9,1.26,27.2,27.2,0,0,0-3.22,3.28,4.39,4.39,0,0,1-7.24-3.16,4.91,4.91,0,0,1,1.61-3.45,3.88,3.88,0,0,1,.63-0.8c13.1-14.13,25.86-1.15,25.86,2.36A4.36,4.36,0,0,1,732.36,70Zm27.18,117.5c-10.5,0-19-14-19-31.26S749,125,759.54,125s19,14,19,31.26S770,187.55,759.54,187.55Zm36.62-67.33c-6.23,0-11.88-7.12-12.61-15.91s3.73-15.91,10-15.91,11.88,7.12,12.61,15.91S802.39,120.22,796.16,120.22Zm11.7-50.64a4.68,4.68,0,0,1-1,2.18A3.74,3.74,0,0,1,805,73.09c-3.56,1.44-5.34-1.84-6.26-2.76a20.22,20.22,0,0,0-1.67-1.44c-2-1.67-4.08-2.41-6.61-1.21-1.72.8-3.45,3-4.54,3.62a4.3,4.3,0,0,1-6.21-4,3.87,3.87,0,0,1,1.32-3c0.29-.34.23-0.34,0.52-0.69l3-2.47A15.47,15.47,0,0,1,793,58.38c4.42,0,10.29,3.56,12.7,6.72,0.58,0.75,2,2,2.18,3.68v0.8Z" transform="translate(-682.37 -44.99)" fill="#1d1d1b"/></svg>